<svg xmlns="http://www.w3.org/2000/svg" viewBox="0 0 200 200">
  <path d="M102.1 14.03A86 86 0 0 1 159.31 37.72L122.76 76.1A33 33 0 0 0 100.81 67.01Z" fill="#F72585"/>
  <path d="M171.52 36.87A86 86 0 0 1 195.21 94.07L142.23 95.37A33 33 0 0 0 133.14 73.42Z" fill="#FF6635" stroke="white" stroke-width="2"/>
  <path d="M185.97 102.1A86 86 0 0 1 162.28 159.31L123.9 122.76A33 33 0 0 0 132.99 100.81Z" fill="#FFD500"/>
  <path d="M159.31 162.28A86 86 0 0 1 102.1 185.97L100.81 132.99A33 33 0 0 0 122.76 123.9Z" fill="#06D6A0"/>
  <path d="M97.9 185.97A86 86 0 0 1 40.69 162.28L77.24 123.9A33 33 0 0 0 99.19 132.99Z" fill="#4CC9F0"/>
  <path d="M37.72 159.31A86 86 0 0 1 14.03 102.1L67.01 100.81A33 33 0 0 0 76.1 122.76Z" fill="#4361EE"/>
  <path d="M14.03 97.9A86 86 0 0 1 37.72 40.69L76.1 77.24A33 33 0 0 0 67.01 99.19Z" fill="#8B2FC9"/>
  <path d="M40.69 37.72A86 86 0 0 1 97.9 14.03L99.19 67.01A33 33 0 0 0 77.24 76.1Z" fill="#FF5470"/>
  <circle cx="100" cy="100" r="26" fill="white"/>
</svg>